# xmcd
#
# Track frame offsets: 
#        150
#        15991
#        32889
#        51906
#        72771
#        79905
#        97331
#        118315
#        135670
#        153423
#        178173
#        193079
#        218830
#        232790
#        255520
#
# Disc length: 3730 seconds
#
# Revision: 0
# Processed by: cddbd v1.5.2PL0 Copyright (c) Steve Scherf et al.
# Submitted via: ExactAudioCopy v1.1
#
DISCID=d10e900f
DTITLE=山崎まさよし - HOME (2013 Digital remastered version)
DYEAR=1997
DGENRE=Pop
TTITLE0=Fat Mama
TTITLE1=アドレナリン
TTITLE2=セロリ
TTITLE3=ベンジャミン
TTITLE4=スクリーミン'97
TTITLE5=名前のない鳥
TTITLE6=コペルニクスの卵
TTITLE7=僕らの煩悩
TTITLE8=昼休み
TTITLE9=One more time, One more chance
TTITLE10=ヤサ男の夢
TTITLE11=HOME
TTITLE12=××しようよ
TTITLE13=レイン ソング
TTITLE14=One more time, One more chance (1994 DEMO TRACKS ver.)
EXTD=
EXTT0=
EXTT1=
EXTT2=
EXTT3=
EXTT4=
EXTT5=
EXTT6=
EXTT7=
EXTT8=
EXTT9=
EXTT10=
EXTT11=
EXTT12=
EXTT13=
EXTT14=
PLAYORDER=
